<?xml version="1.0" encoding="UTF-8"?>
<!DOCTYPE svg PUBLIC "-//W3C//DTD SVG 1.1//EN" "http://www.w3.org/Graphics/SVG/1.1/DTD/svg11.dtd">
<!-- Creator: CorelDRAW 2017 -->
<svg xmlns="http://www.w3.org/2000/svg" xml:space="preserve" width="210mm" height="297mm" version="1.1" style="shape-rendering:geometricPrecision; text-rendering:geometricPrecision; image-rendering:optimizeQuality; fill-rule:evenodd; clip-rule:evenodd"
viewBox="0 0 21000 29700"
 xmlns:xlink="http://www.w3.org/1999/xlink">
 <defs>
  <style type="text/css">
   <![CDATA[
    .fil0 {fill:none}
    .fil6 {fill:#0C1621}
    .fil5 {fill:#162738}
    .fil16 {fill:#1A1A1A}
    .fil22 {fill:#1C334A}
    .fil7 {fill:#2A435C}
    .fil20 {fill:#333333}
    .fil17 {fill:#3D5A75}
    .fil13 {fill:#78BFD6}
    .fil18 {fill:#7B9DBD}
    .fil12 {fill:#99D6EB}
    .fil3 {fill:#B2E6F7}
    .fil1 {fill:#CCF2FF}
    .fil9 {fill:#D61313}
    .fil23 {fill:#DEF7FF}
    .fil11 {fill:#E07409}
    .fil8 {fill:#E62525}
    .fil19 {fill:#E67505}
    .fil10 {fill:#ED7F11}
    .fil15 {fill:#F78B20}
    .fil14 {fill:#FF9933}
    .fil21 {fill:#FFA74F}
    .fil4 {fill:white}
    .fil2 {fill:white}
    .fil24 {fill:#7B9DBD;fill-rule:nonzero}
   ]]>
  </style>
 </defs>
 <g id="Слой_x0020_1">
  <metadata id="CorelCorpID_0Corel-Layer"/>
  <polygon class="fil0" points="4879.37,7153.47 18131.51,7153.47 18131.51,17092.57 4879.37,17092.57 "/>
  <g id="_1980697574032">
   <circle class="fil1" cx="11505.44" cy="12658.98" r="4001.4"/>
   <rect class="fil2" x="7033.98" y="12136.17" width="8942.93" height="275.17"/>
   <path class="fil3" d="M15485.33 13075.54c-208.35,2014.15 -1910.65,3584.84 -3979.89,3584.84 -2069.24,0 -3771.54,-1570.69 -3979.89,-3584.84l7959.78 0z"/>
   <path class="fil1" d="M14809.79 14915.76c-171.35,250.41 -370.38,480.33 -592.74,685.4l-5423.22 0c-222.36,-205.07 -421.39,-434.99 -592.74,-685.4l6608.7 0z"/>
   <g>
    <path class="fil4" d="M11663.09 10496.91l-323.17 -1273.25c-153.29,-603.96 -145.42,-1235.48 22.83,-1831.11l12.77 251.76c21.63,426.54 77.16,851.14 166.07,1269.78l421.22 1527.15 -299.72 55.67z"/>
    <g>
     <path class="fil4" d="M11503.9 12973.77l-867.75 1032.06c-154.5,183.75 -335.81,346.96 -540.16,486.22 -295.36,201.28 -552.52,441.98 -764.5,715.56 -54.98,70.97 -147.83,109.86 -251.54,105.38 -103.7,-4.49 -206.6,-51.86 -278.75,-128.31 -125.04,-132.51 -178.36,-302.1 -142.78,-454.11 100.7,-430.19 440.74,-755.95 910.09,-871.89 116.01,-28.66 210.53,-95.15 266.82,-187.69 148.6,-244.32 254.95,-511.39 315.97,-793.55 47.87,-221.33 208.24,-396.51 437.25,-477.63 229,-81.12 502.7,-59.69 746.23,58.43l169.12 515.53z"/>
     <path class="fil4" d="M11669.2 12647.9l1163.76 520.28c167.73,74.98 294.46,221.4 346.4,400.2 51.94,178.81 23.81,371.82 -76.89,527.58 -285.15,441.03 -657.43,816.77 -1093.12,1103.3 -105.16,69.15 -238.32,76.86 -350.5,20.29 -112.18,-56.57 -186.81,-169.07 -196.45,-296.12 -30.35,-400.2 138.19,-789.28 448.96,-1036.43l-551.33 -175.53c-280.34,-89.25 -556.21,-192.46 -826.61,-309.26 -223.84,-96.69 -349.19,-341.05 -299.2,-583.25 50,-242.2 261.37,-414.56 504.52,-411.4l930.46 240.34z"/>
     <path class="fil4" d="M11822.34 12716.37l1010.62 451.81c167.73,74.99 294.46,221.4 346.4,400.21 51.94,178.8 23.81,371.81 -76.89,527.57 -285.15,441.03 -657.43,816.77 -1093.12,1103.3 -105.16,69.15 -238.32,76.86 -350.5,20.29 -112.18,-56.57 -186.81,-169.08 -196.45,-296.11 -30.35,-400.21 138.19,-789.3 448.96,-1036.44l-551.33 -175.53c-124.17,-39.53 -247.47,-81.79 -369.79,-126.77l221.83 -139.85c273.42,-172.37 486.6,-427.26 610.27,-728.48z"/>
     <path class="fil4" d="M12295.21 12553.86l-138.91 97.16c-190.72,133.38 -427.63,179.35 -653.19,126.72 -225.56,-52.62 -419.14,-199.02 -533.73,-403.64l1371.85 -1975.67 356.39 -84.61 41.75 -11.51c205.26,-56.57 423.57,21.05 549.57,195.39l194.99 297.76 -405.79 1296.5 -782.93 461.9z"/>
     <path class="fil4" d="M12697.62 10313.82l-993.72 -58.51c-76.8,-4.52 -151.73,25.15 -205.33,81.3 -53.6,56.16 -80.57,133.25 -73.9,211.24l-394.21 944.5 -402.42 284.18c-219.2,154.8 -306.24,441.9 -210.86,695.48 95.39,253.59 348.55,408.14 613.28,374.4 119.53,-15.24 237.64,-40.4 353.14,-75.23 272.88,-82.28 513.93,-248.75 689.87,-476.43 144.7,-187.26 240.73,-408.6 279.22,-643.59 42.05,-256.75 55.83,-517.48 41.07,-777.33 -13.1,-230.65 105.08,-448.45 303.86,-560.01z"/>
     <path class="fil4" d="M10984.47 11524.83l-356.43 251.7c-219.2,154.8 -306.24,441.9 -210.86,695.48 53.98,143.49 158.48,255.26 287,319.16 83.21,-244.32 253.52,-450.3 479.92,-575.05 268.46,-147.93 587.78,-166.22 870.85,-49.89l84.97 34.92c96.56,-148.39 164.91,-314.08 201.31,-488.48l-286.28 -379.06 -1070.48 191.22z"/>
     <path class="fil4" d="M12563.04 11092.12l154.49 -163.97 130.82 26.08 -48.77 230.82 -101.96 35.91 -68.35 250.28c-306.47,670.46 -1024.86,1082.63 -1806.37,958.06l-330.39 -366.91 746.02 -345.5 988.12 -116.7 71.71 -60.11c113.42,-95.09 210.53,-208.7 287.35,-336.19l-22.67 -111.77z"/>
     <path class="fil4" d="M10575.98 12023.74l662.55 -306.85 808.82 -95.52c22.09,35.32 34.01,73.59 34.01,114.14 0,221.96 -355.68,427.6 -794.43,459.29 -311.24,22.5 -580.63,-48.61 -710.95,-171.06z"/>
     <path class="fil4" d="M13288.94 10497.7c178.8,400.21 -322.88,1432.5 -993.73,2056.16l402.41 -192.24c184.16,-87.97 346.85,-216.43 476.34,-376.12 208.37,-256.98 324.7,-474.39 357.26,-805.92 134.04,-16.45 292.6,-329.62 75.42,-472.65l-317.7 -209.23z"/>
     <path class="fil4" d="M13613.34 10928.15l238.16 977.93c40.25,165.26 -0.88,340.12 -110.28,468.92 -109.41,128.8 -273.47,195.5 -439.96,178.86 -423.44,-42.31 -799.52,-293.39 -1006.31,-671.82 -70.82,-129.6 -60.56,-289.38 26.23,-408.5 86.78,-119.11 234.03,-175.51 376.44,-144.19l770.3 156.99 26.45 -336.66 118.97 -221.53z"/>
     <ellipse class="fil4" transform="matrix(0.320108 0.0411058 -0.0485697 0.391778 12511.9 11622.9)" rx="702.89" ry="682.62"/>
     <path class="fil4" d="M11538.22 10398.43l-998.48 555.79c-177.06,98.57 -288.85,285.95 -293.09,491.3 -4.23,205.36 99.72,397.35 272.56,503.39 234.32,143.76 516.54,182.78 780.05,107.82 263.51,-74.95 484.97,-257.22 612.1,-503.8l-271.12 -417.92 -151.56 -159.53 49.54 -577.05z"/>
     <polygon class="fil4" points="11683.33,10501.85 12003.37,10432.74 12335.36,12024.92 12015.32,12094.04 "/>
     <ellipse class="fil4" transform="matrix(0.320108 0.0411058 -0.0485697 0.391778 11604.4 11135)" rx="702.89" ry="682.62"/>
     <path class="fil4" d="M12537.48 11379.49l-166.3 -148.36c-64.56,-57.6 -146.27,-91.45 -232.01,-96.12l-135.5 0c-36.71,0 -71.66,16.01 -96,43.97 -24.34,27.97 -35.73,65.21 -31.3,102.3l-88.29 2.09c-49.31,1.17 -91.48,36.43 -102.18,85.43 -10.7,49.01 12.83,99.12 57.01,121.44l51.33 252.03c16.7,81.97 86.16,141.8 168.36,144.99 140.15,5.46 279.73,-20.95 408.58,-77.31l36.96 -2.09c98.11,-5.54 182.45,-72.72 211.32,-168.32 28.86,-95.6 -8.25,-194.28 -81.98,-260.05z"/>
     <path class="fil4" d="M11518.73 10925.75l133.76 -179.23c51.93,-69.59 125.33,-119.4 208.41,-141.44l132.77 -27.6c35.96,-7.48 73.35,1.09 102.7,23.53 29.35,22.45 47.83,56.61 50.79,93.85l86.91 -15.93c48.54,-8.9 96.79,17.05 116.91,62.88 20.12,45.84 6.93,99.73 -31.98,130.6l-0.73 257.38c-0.23,83.72 -56.53,156.48 -136.43,176.36 -136.24,33.89 -278.19,36.44 -415.52,7.47l-36.62 5.49c-97.22,14.55 -193.06,-34.09 -240.14,-121.87 -47.08,-87.79 -30.13,-192.03 29.17,-271.49z"/>
     <polygon class="fil4" points="11565.13,10476.74 12101.38,10360.92 12121.59,10457.84 11585.34,10573.66 "/>
     <path class="fil4" d="M13359.3 10308.61l-514.89 -185.1 -195.8 393.7c-68.38,137.51 -8.49,291.63 133.11,342.54l0.01 0.01c141.6,50.9 313.38,-19.95 381.77,-157.45l195.8 -393.7z"/>
     <path class="fil4" d="M12717.53 9691.85l855 0 87.34 685.15c30.51,239.3 -136.9,435.07 -372.02,435.07l-0.03 0c-235.11,0 -452.44,-195.77 -482.95,-435.07l-87.34 -685.15z"/>
     <path class="fil4" d="M13518.8 10482.21c-0.53,104.22 -78.53,185.25 -184.55,185.25l0 0c-106.03,0 -204.68,-81.03 -231.78,-185.25l416.33 0z"/>
     <path class="fil4" d="M13619.07 10056.91l44.39 -189.24 4.11 -8.36c60.27,-122.63 28.93,-271.4 -75.45,-358.08 -104.38,-86.69 -253.87,-88.11 -359.82,-3.42l-342.88 0c-92.59,0 -176.4,55.77 -213.53,142.09l-55.57 20.89c-54.66,20.56 -90.2,74.48 -88.15,133.74 7.31,211.45 69.06,417.24 179.06,596.77l155.61 -139.34 184.7 -50.37 -47.04 -141.68c-6.09,-18.34 -3.64,-38.5 6.66,-54.77 10.3,-16.27 27.32,-26.88 46.24,-28.82 93.05,-9.53 186.88,-8.13 279.61,4.18 90.77,12.06 183.06,-0.13 267.81,-35.36l14.25 111.77z"/>
     <ellipse class="fil4" transform="matrix(0.462975 -0.0483956 0.0475517 0.471192 12848.4 10202)" rx="195.79" ry="349.25"/>
     <path class="fil4" d="M11576.41 14844.02l-72.51 22.98c-63.27,20.06 -118.49,60.37 -157.44,114.93 -44.4,62.2 -40.13,147.5 10.27,204.78 52.18,59.31 84.53,133.93 92.39,213.14 22.98,231.51 134.3,444.59 310.03,593.44 57.54,48.75 125.91,82.46 199.16,98.22 57.58,12.38 114.56,-23.52 129.34,-81.5l-2.05 -8.36c-73.43,-299.07 -56.25,-613.75 49.28,-902.7 56.28,-154.13 -14.56,-326.27 -161.97,-393.55 -147.41,-67.3 -320.84,-6.67 -396.5,138.62z"/>
     <path class="fil4" d="M8830.16 14844.02l-72.52 22.98c-63.27,20.06 -118.49,60.37 -157.44,114.93 -44.4,62.2 -40.12,147.5 10.27,204.78 52.18,59.31 84.53,133.93 92.39,213.14 22.98,231.51 134.3,444.59 310.03,593.44 57.54,48.75 125.91,82.46 199.16,98.22 57.58,12.38 114.56,-23.52 129.34,-81.5l-2.05 -8.36c-73.43,-299.07 -56.25,-613.75 49.28,-902.7 56.28,-154.13 -14.56,-326.27 -161.97,-393.55 -147.41,-67.3 -320.83,-6.67 -396.49,138.62z"/>
     <ellipse class="fil4" transform="matrix(1 -0.165446 -0 1.01775 10880.5 11246.2)" rx="388.04" ry="211.81"/>
     <ellipse class="fil4" transform="matrix(0.11761 -0.0395549 -0 0.119697 10726.9 11174.2)" rx="388.04" ry="211.81"/>
     <ellipse class="fil4" transform="matrix(0.0814898 -0.00631533 -0.0215508 0.0788291 10814.5 11139.1)" rx="388.04" ry="211.81"/>
    </g>
    <path class="fil5" d="M11440.03 12959.68l-867.75 1014.07c-154.5,180.54 -335.81,340.9 -540.16,477.73 -295.36,197.78 -552.52,434.28 -764.5,703.09 -54.98,69.72 -147.83,107.94 -251.54,103.54 -103.7,-4.41 -206.6,-50.95 -278.75,-126.08 -125.04,-130.19 -178.36,-296.83 -142.78,-446.19 100.7,-422.68 440.74,-742.76 910.09,-856.68 116.01,-28.16 210.53,-93.49 266.82,-184.42 148.6,-240.05 254.95,-502.47 315.97,-779.71 47.87,-217.47 208.24,-389.6 437.25,-469.3 229,-79.7 502.7,-58.65 746.23,57.41l169.12 506.54z"/>
    <path class="fil5" d="M11605.33 12639.5l1163.76 511.2c167.73,73.68 294.46,217.54 346.4,393.23 51.94,175.68 23.81,365.33 -76.89,518.37 -285.15,433.34 -657.43,802.53 -1093.12,1084.06 -105.16,67.95 -238.32,75.52 -350.5,19.94 -112.18,-55.59 -186.81,-166.13 -196.45,-290.95 -30.35,-393.23 138.19,-775.53 448.96,-1018.36l-551.33 -172.47c-280.34,-87.69 -556.21,-189.11 -826.61,-303.87 -223.84,-95 -349.19,-335.1 -299.2,-573.07 50,-237.98 261.37,-407.34 504.52,-404.23l930.46 236.15z"/>
    <path class="fil6" d="M11758.47 12706.77l1010.62 443.93c167.73,73.68 294.46,217.54 346.4,393.23 51.94,175.68 23.81,365.33 -76.89,518.37 -285.15,433.34 -657.43,802.53 -1093.12,1084.06 -105.16,67.95 -238.32,75.52 -350.5,19.94 -112.18,-55.59 -186.81,-166.13 -196.45,-290.95 -30.35,-393.23 138.19,-775.53 448.96,-1018.36l-551.33 -172.47c-124.17,-38.84 -247.47,-80.37 -369.79,-124.56l221.83 -137.41c273.42,-169.37 486.6,-419.81 610.27,-715.78z"/>
    <path class="fil2" d="M12231.34 12547.1l-138.91 95.46c-190.72,131.06 -427.63,176.22 -653.19,124.51 -225.56,-51.71 -419.14,-195.55 -533.73,-396.6l1371.85 -1941.21 356.39 -83.14 41.75 -11.31c205.26,-55.59 423.57,20.68 549.57,191.98l194.99 292.57 -405.79 1273.89 -782.93 453.85z"/>
    <path class="fil7" d="M12633.75 10346.12l-993.72 -57.49c-76.8,-4.45 -151.73,24.71 -205.33,79.88 -53.6,55.18 -80.57,130.92 -73.9,207.56l-394.21 928.02 -402.42 279.23c-219.2,152.1 -306.24,434.19 -210.86,683.35 95.39,249.17 348.55,401.03 613.28,367.87 119.53,-14.97 237.64,-39.69 353.14,-73.92 272.88,-80.84 513.93,-244.41 689.87,-468.11 144.7,-184 240.73,-401.48 279.22,-632.38 42.05,-252.27 55.83,-508.45 41.07,-763.77 -13.1,-226.62 105.08,-440.63 303.86,-550.24z"/>
    <path class="fil5" d="M10920.6 11536.01l-356.43 247.31c-219.2,152.1 -306.24,434.19 -210.86,683.35 53.98,140.99 158.48,250.81 287,313.6 83.21,-240.06 253.52,-442.45 479.92,-565.03 268.46,-145.34 587.78,-163.32 870.85,-49.02l84.97 34.31c96.56,-145.79 164.91,-308.6 201.31,-479.96l-286.28 -372.44 -1070.48 187.88z"/>
    <path class="fil8" d="M12499.17 11110.85l154.49 -161.11 130.82 25.62 -48.77 226.8 -101.96 35.28 -68.35 245.91c-306.47,658.77 -1024.86,1063.75 -1806.37,941.36l-330.39 -360.51 746.02 -339.48 988.12 -114.66 71.71 -59.07c113.42,-93.43 210.53,-205.06 287.35,-330.32l-22.67 -109.82z"/>
    <path class="fil9" d="M10512.11 12026.22l662.55 -301.5 808.82 -93.85c22.09,34.7 34.01,72.3 34.01,112.15 0,218.09 -355.68,420.14 -794.43,451.28 -311.24,22.1 -580.63,-47.77 -710.95,-168.08z"/>
    <path class="fil5" d="M13225.07 10526.79c178.8,393.24 -322.88,1407.52 -993.73,2020.31l402.41 -188.89c184.16,-86.44 346.85,-212.66 476.34,-369.57 208.37,-252.49 324.7,-466.12 357.26,-791.86 134.04,-16.17 292.6,-323.87 75.42,-464.4l-317.7 -205.59z"/>
    <path class="fil5" d="M13549.47 10949.74l238.16 960.87c40.25,162.38 -0.88,334.19 -110.28,460.74 -109.41,126.56 -273.47,192.09 -439.96,175.75 -423.44,-41.58 -799.52,-288.28 -1006.31,-660.11 -70.82,-127.34 -60.56,-284.34 26.23,-401.37 86.78,-117.04 234.03,-172.45 376.44,-141.68l770.3 154.25 26.45 -330.79 118.97 -217.66z"/>
    <ellipse class="fil2" transform="matrix(0.320108 0.040389 -0.0485697 0.384946 12448 11632.4)" rx="702.89" ry="682.62"/>
    <path class="fil7" d="M11474.35 10429.26l-998.48 546.1c-177.06,96.84 -288.85,280.95 -293.09,482.73 -4.23,201.77 99.72,390.41 272.56,494.61 234.32,141.25 516.54,179.58 780.05,105.94 263.51,-73.65 484.97,-252.74 612.1,-495.02l-271.12 -410.63 -151.56 -156.75 49.54 -566.98z"/>
    <polygon class="fil4" points="11619.46,10530.87 11939.5,10462.96 12271.49,12027.38 11951.45,12095.29 "/>
    <ellipse class="fil2" transform="matrix(0.320108 0.040389 -0.0485697 0.384946 11540.5 11153)" rx="702.89" ry="682.62"/>
    <path class="fil10" d="M12473.61 11393.21l-166.3 -145.78c-64.56,-56.59 -146.27,-89.86 -232.01,-94.44l-135.5 0c-36.71,0 -71.66,15.73 -96,43.21 -24.34,27.48 -35.73,64.07 -31.3,100.51l-88.29 2.05c-49.31,1.15 -91.48,35.79 -102.18,83.94 -10.7,48.16 12.83,97.4 57.01,119.32l51.33 247.63c16.7,80.55 86.16,139.33 168.36,142.47 140.15,5.36 279.73,-20.59 408.58,-75.96l36.96 -2.06c98.11,-5.44 182.45,-71.44 211.32,-165.38 28.86,-93.93 -8.25,-190.89 -81.98,-255.51z"/>
    <path class="fil11" d="M11679.04 11502.02l51.33 247.63c16.7,80.55 86.16,139.33 168.36,142.47 14.7,0.56 29.38,0.77 44.06,0.65 8.45,-26.15 9.65,-54.59 2.68,-82.17l-51.24 -202.85c-8.84,-56.55 -56.37,-99 -113.55,-101.42l-101.64 -4.31z"/>
    <path class="fil12" d="M11622.45 10496.91l-306.06 -1273.25c-145.18,-603.96 -128.82,-1235.48 47.43,-1831.11l9.39 251.76c15.9,426.54 65.73,851.14 149.01,1269.78l400.7 1527.15 -300.47 55.67z"/>
    <path class="fil13" d="M11732.16 10455.28l71.4 -13.23 -393.5 -1502.11 -0.68 -3.4c-28.44,-142.99 -53.04,-286.71 -73.78,-430.98 7.3,232.55 38.15,464.45 92.65,691.21l303.91 1258.51z"/>
    <path class="fil14" d="M11454.86 10947.38l133.76 -176.11c51.93,-68.37 125.33,-117.32 208.41,-138.97l132.77 -27.12c35.96,-7.35 73.35,1.07 102.7,23.12 29.35,22.06 47.83,55.62 50.79,92.21l86.91 -15.65c48.54,-8.75 96.79,16.75 116.91,61.79 20.12,45.04 6.93,97.99 -31.98,128.31l-0.73 252.9c-0.23,82.26 -56.53,153.75 -136.43,173.28 -136.24,33.3 -278.19,35.81 -415.52,7.35l-36.62 5.38c-97.22,14.3 -193.06,-33.48 -240.14,-119.74 -47.08,-86.26 -30.13,-188.68 29.17,-266.75z"/>
    <path class="fil15" d="M12255.13 10894.96l-0.73 252.9c-0.23,82.26 -56.53,153.75 -136.43,173.28 -28.09,6.87 -56.43,12.42 -84.92,16.67 -15.96,-20.99 -24.62,-47.17 -23.71,-74.43l8.15 -244.36c-5.27,-41.36 22.21,-79.8 63.05,-88.19l174.59 -35.87z"/>
    <polygon class="fil4" points="11501.26,10506.2 12037.51,10392.4 12057.72,10487.63 11521.47,10601.43 "/>
    <path class="fil10" d="M13295.43 10341l-514.89 -181.87 -195.8 386.83c-68.38,135.11 -8.49,286.55 133.11,336.57l0.01 0.01c141.6,50.01 313.38,-19.6 381.77,-154.71l195.8 -386.83z"/>
    <path class="fil14" d="M12653.66 9734.99l855 0 87.34 673.21c30.51,235.12 -136.9,427.48 -372.02,427.48l-0.03 0c-235.11,0 -452.44,-192.36 -482.95,-427.48l-87.34 -673.21z"/>
    <path class="fil10" d="M13508.66 9734.99l87.34 673.21c30.51,235.12 -136.9,427.48 -372.02,427.48l-0.03 0c-43.2,0 -85.8,-6.51 -126.75,-18.58 164.92,-55.32 269.37,-217.27 244.73,-407.14l-87.34 -673.21 254.07 -1.76z"/>
    <path class="fil4" d="M13454.93 10511.58c-0.53,102.39 -78.53,182.01 -184.55,182.01l0 0c-106.03,0 -204.68,-79.62 -231.78,-182.01l416.33 0z"/>
    <path class="fil16" d="M13555.2 10093.68l44.39 -185.94 4.11 -8.21c60.27,-120.48 28.93,-266.66 -75.45,-351.83 -104.38,-85.18 -253.87,-86.58 -359.82,-3.37l-342.88 0c-92.59,0 -176.4,54.8 -213.53,139.62l-55.57 20.53c-54.66,20.2 -90.2,73.17 -88.15,131.4 7.31,207.76 69.06,409.97 179.06,586.37l155.61 -136.91 184.7 -49.5 -47.04 -139.21c-6.09,-18.01 -3.64,-37.82 6.66,-53.81 10.3,-15.98 27.32,-26.41 46.24,-28.31 93.05,-9.37 186.88,-7.99 279.61,4.11 90.77,11.84 183.06,-0.14 267.81,-34.75l14.25 109.81z"/>
    <ellipse class="fil14" transform="matrix(0.462975 -0.0475517 0.0475517 0.462975 12784.5 10236.2)" rx="195.79" ry="349.25"/>
    <path class="fil6" d="M11512.54 14797.31l-72.51 22.59c-63.27,19.7 -118.49,59.31 -157.44,112.92 -44.4,61.11 -40.13,144.93 10.27,201.21 52.18,58.27 84.53,131.6 92.39,209.42 22.98,227.47 134.3,436.84 310.03,583.1 57.54,47.89 125.91,81.02 199.16,96.5 57.58,12.17 114.56,-23.1 129.34,-80.07l-2.05 -8.22c-73.43,-293.85 -56.25,-603.05 49.28,-886.96 56.28,-151.44 -14.56,-320.57 -161.97,-386.69 -147.41,-66.12 -320.84,-6.55 -396.5,136.2z"/>
    <path class="fil5" d="M8766.29 14797.31l-72.52 22.59c-63.27,19.7 -118.49,59.31 -157.44,112.92 -44.4,61.11 -40.12,144.93 10.27,201.21 52.18,58.27 84.53,131.6 92.39,209.42 22.98,227.47 134.3,436.84 310.03,583.1 57.54,47.89 125.91,81.02 199.16,96.5 57.58,12.17 114.56,-23.1 129.34,-80.07l-2.05 -8.22c-73.43,-293.85 -56.25,-603.05 49.28,-886.96 56.28,-151.44 -14.56,-320.57 -161.97,-386.69 -147.41,-66.12 -320.83,-6.55 -396.49,136.2z"/>
    <ellipse class="fil17" transform="matrix(1 -0.162561 -0 1 10816.7 11262.3)" rx="388.04" ry="211.81"/>
    <ellipse class="fil18" transform="matrix(0.11761 -0.0388651 -0 0.11761 10663 11191.5)" rx="388.04" ry="211.81"/>
    <ellipse class="fil18" transform="matrix(0.0814898 -0.0062052 -0.0215508 0.0774544 10750.7 11157)" rx="388.04" ry="211.81"/>
    <g>
     <g>
      <path class="fil16" d="M13094.67 10112.33c-15.61,2.15 -28.1,12.72 -31.4,26.57 -3.31,13.84 3.26,28.08 16.52,35.77 13.25,7.69 30.43,7.23 43.16,-1.15l119.82 -13.78c13.46,-1.55 24.93,-9.52 29.96,-20.83 5.02,-11.3 2.82,-24.16 -5.76,-33.59 -8.58,-9.44 -22.18,-13.96 -35.54,-11.81l-136.76 18.82z"/>
      <path class="fil16" d="M13188.28 10194.61l0 0c25.77,0 46.84,21.07 46.84,46.84l0 27.76c0,25.77 -21.07,46.84 -46.84,46.84l0 0c-25.77,0 -46.84,-21.07 -46.84,-46.84l0 -27.76c0,-25.77 21.07,-46.84 46.84,-46.84z"/>
     </g>
     <g>
      <path class="fil16" d="M13503.62 10112.33c10.64,2.15 19.16,12.72 21.41,26.57 2.26,13.84 -2.23,28.08 -11.26,35.77 -9.04,7.69 -20.76,7.23 -29.43,-1.15l-81.71 -13.78c-9.17,-1.55 -16.99,-9.52 -20.42,-20.83 -3.43,-11.3 -1.93,-24.16 3.92,-33.59 5.85,-9.44 15.13,-13.96 24.23,-11.81l93.26 18.82z"/>
      <path class="fil16" d="M13439.79 10194.61l0 0c-17.57,0 -31.94,21.07 -31.94,46.84l0 27.76c0,25.77 14.37,46.84 31.94,46.84l0 0c17.57,0 31.94,-21.07 31.94,-46.84l0 -27.76c0,-25.77 -14.37,-46.84 -31.94,-46.84z"/>
     </g>
    </g>
    <path class="fil19" d="M13363.55 10423.73c37.9,0 53.47,-7.63 53.47,11.85 0,19.48 -40.37,58.71 -78.27,58.71 -37.9,0 -58.99,-39.23 -58.99,-58.71 0,-19.48 45.89,-11.85 83.79,-11.85z"/>
    <rect class="fil20" x="12707.34" y="9573.46" width="606.35" height="212.24" rx="131.46" ry="106.12"/>
    <path class="fil21" d="M11726.39 10767.15c90.02,-17.84 121.1,68.85 121.1,183.39 0,114.54 -31.08,213.55 -121.1,231.39 -90.02,17.84 -211.81,-50.88 -211.81,-165.42 0,-114.54 121.79,-231.52 211.81,-249.36z"/>
    <ellipse class="fil22" transform="matrix(1 -0.581074 -0 1 9139.14 14276.3)" rx="388.04" ry="211.81"/>
    <ellipse class="fil17" transform="matrix(0.11761 -0.0880863 -0 0.11761 8985.46 14269.9)" rx="388.04" ry="211.81"/>
    <ellipse class="fil17" transform="matrix(0.0814898 -0.0403098 -0.0215508 0.0864737 9073.11 14198.6)" rx="388.04" ry="211.81"/>
   </g>
   <path class="fil2" d="M14066.87 11701.33c360.78,-73 533.11,-216.15 384.9,-319.73 -106.61,-74.51 -350.03,-108.25 -612.56,-94.15 194.61,2.33 360.34,32.63 439.74,88.12 139.42,97.44 -40.04,235.61 -400.82,308.61 -157.84,31.94 -324.24,46.12 -473.17,43.8 189.03,26.45 435.65,19.14 661.91,-26.65z"/>
   <path class="fil2" d="M11209.52 9845.48c-360.78,-73 -533.11,-216.15 -384.9,-319.73 106.61,-74.51 350.03,-108.25 612.56,-94.15 -194.61,2.33 -360.34,32.63 -439.74,88.12 -139.42,97.44 40.04,235.61 400.82,308.61 157.84,31.94 324.24,46.12 473.17,43.8 -189.03,26.45 -435.65,19.14 -661.91,-26.65z"/>
   <path class="fil2" d="M13002.25 13554.19c557.67,-253.67 783.43,-550.43 504.26,-662.83 -200.82,-80.84 -608.2,-44.27 -1028.63,77.05 316.44,-69.21 596.56,-82.23 746.13,-22.01 262.62,105.73 23.42,397.08 -534.24,650.76 -243.99,110.98 -508.5,196.36 -750.88,248.45 316.45,-27.99 713.64,-132.33 1063.36,-291.42z"/>
   <circle class="fil3" cx="9453.65" cy="10002.55" r="750.12"/>
   <circle class="fil2" cx="9277.51" cy="9886.13" r="750.12"/>
   <circle class="fil23" cx="9277.51" cy="9886.13" r="573.98"/>
   <path class="fil24" d="M9220.12 9444.32c0,-31.69 25.7,-57.39 57.39,-57.39 31.69,0 57.39,25.7 57.39,57.39l0 418.05 206.39 206.39c22.4,22.4 22.4,58.74 0,81.15 -22.41,22.4 -58.75,22.4 -81.15,0l-223.21 -223.2c-10.38,-10.39 -16.81,-24.74 -16.81,-40.58l0 -441.81z"/>
  </g>
 </g>
</svg>
